<svg width="286" height="331" viewBox="0 0 286 331" fill="none" xmlns="http://www.w3.org/2000/svg">
<path d="M123.832 30.4705C125.702 31.7225 140.026 46.7785 141.527 48.724C140.805 52.7693 147.026 50.8943 148.747 51.2895C149.588 51.4828 152.324 51.8455 152.922 52.0158L153.251 51.742C155.354 51.6508 160.507 52.7588 163.51 52.9188C164.243 54.1705 163.445 55.0135 164.493 56.1155C164.907 56.5505 163.35 58.1655 163.862 59.131C164.14 59.6543 164.971 61.1725 164.934 61.5938C161.359 62.51 149.369 60.2613 145.935 62.4515C113.006 63.934 78.9457 80.8298 56.7199 105.13C38.4764 125.099 27.0729 150.363 24.1654 177.254C19.7142 222.479 40.4994 265.98 77.7264 291.678C102.987 309.115 129.286 316.34 159.741 315.733C161.901 315.313 165.236 315.45 167.53 315.255C186.059 313.673 202.674 307.968 219.25 299.853C219.674 300.093 219.788 300.113 219.981 300.565C208.239 309.183 190.361 316.845 176.308 320.375C174.85 320.74 170.052 321.99 168.771 321.908C164.515 323.308 152.762 324.02 148.188 324.388C143.047 324.8 136.079 324.333 130.938 323.88C101.482 321.35 73.6559 309.275 51.6889 289.488C24.6512 265.265 8.34431 231.295 6.35623 195.049C4.40941 158.528 17.0952 122.736 41.6069 95.5923C59.7362 75.5535 83.4297 61.3768 109.658 54.8738C120.117 52.3685 127.605 51.6173 138.299 51.021C133.331 47.3943 131.169 42.48 128.037 37.3545C126.635 35.061 125.191 32.7838 123.832 30.4705Z" fill="#3A3A3A"/>
<path d="M219.25 299.853C219.674 300.093 219.788 300.113 219.981 300.565C208.239 309.183 190.361 316.845 176.309 320.375C174.851 320.74 170.052 321.99 168.771 321.908L168.83 321.605C169.272 321.185 180.767 318.803 182.477 318.223C183.925 317.73 186.306 316.65 187.776 316.475L185.685 316.08C185.385 315.447 185.169 314.873 184.919 314.225C183.32 314.325 181.098 313.89 179.807 314.07C172.626 315.065 167.091 316.493 159.741 315.733C161.902 315.313 165.236 315.45 167.53 315.255C186.059 313.673 202.674 307.968 219.25 299.853Z" fill="#3A3A3A"/>
<path d="M92.5063 118.125C99.0468 118.443 105.553 118.129 112.093 117.996C117.274 117.89 122.524 117.988 127.694 117.854C152.795 117.205 193.99 115.744 192.48 151.507C192.117 160.131 188.251 166.854 181.865 172.491C174.832 178.7 167.66 180.881 158.869 183.326L160.436 183.654C161.299 183.504 162.269 183.219 163.037 183.575C164.55 185 168.243 197.233 169.476 200.427C177.42 220.998 188.582 241.93 205.137 256.883C206.863 258.443 211.032 262.083 212.949 263.04C212.199 263.48 212.128 263.705 211.734 264.463C209.967 263.443 207.554 262.553 205.65 261.578C175.636 246.219 154.989 215.93 142.99 185.07C139.747 185.363 132.359 185.571 129.369 184.703L129.239 184.463C130.389 184.179 134.401 184.03 135.804 183.976C142.066 183.734 149.508 182.5 155.09 179.49C162.406 175.613 167.825 168.922 170.097 160.96C172.597 152.456 172.656 140.69 168.293 132.771C164.937 126.677 159.491 123.535 152.981 121.663C147.111 119.976 126.659 117.392 121.438 120.275C120.868 121.275 120.142 122.858 120.077 124.007C119.751 129.776 119.858 135.571 119.869 141.347L119.892 170.101L119.884 213.78C119.884 217.019 119.7 220.798 119.886 224.019C120.389 232.754 117.336 247.368 129.201 249.627C130.841 249.939 133.061 250.115 134.491 250.893L134.143 251.235C132.844 251.52 127.242 251.323 125.437 251.335C115.915 251.42 106.393 251.41 96.8713 251.3C95.0603 251.288 87.9118 251.945 87.0391 250.945C87.7783 249.37 98.8161 250.84 100.455 242.08C102.059 233.512 101.466 225.466 101.464 216.841L101.456 185.033L101.468 151.922C101.469 145.723 101.61 139.497 101.311 133.307C100.94 125.656 99.2583 121.607 91.4976 119.592C91.3066 118.591 91.7666 118.58 92.5063 118.125Z" fill="#3A3A3A"/>
<path d="M160.436 183.654C158.474 183.733 155.135 184.702 153.613 184.368L154.554 184.59L154.663 183.727C155.672 183.537 157.863 183.359 158.869 183.326L160.436 183.654Z" fill="#3A3A3A"/>
<path d="M212.282 82.443C218.544 85.4835 222.951 87.713 228.752 91.6582C249.147 105.819 264.512 126.097 272.627 149.562C282.607 178.91 280.662 211.005 267.21 238.934C254.812 264.745 233.126 284.92 206.489 295.425C206.655 294.61 206.686 294.425 207.061 293.69L207.594 294.025C208.582 293.427 208.709 291.117 208.875 289.96L208.97 289.95L209.104 289.515C208.685 288.793 208.945 289.015 208.09 288.72C249.508 262.87 268.935 214.257 258.067 166.797C251.4 137.948 233.605 112.902 208.558 97.113C209.235 96.5372 208.939 95.3342 208.943 94.418C208.96 90.913 208.469 86.8722 210.594 83.8297C210.595 83.8285 210.221 83.2782 210.377 82.6782C211.263 82.8212 211.456 82.8332 212.282 82.443Z" fill="#3A3A3A"/>
<path d="M136.752 76.5208C156.338 70.8713 179 71.2365 198.368 77.2043C201.825 78.2695 209.143 80.7348 212.282 82.443C211.456 82.8333 211.263 82.8213 210.377 82.6783C210.221 83.2783 210.595 83.8285 210.594 83.8298C208.469 86.8723 208.96 90.913 208.943 94.418C208.939 95.3343 209.235 96.5373 208.558 97.113C192.714 87.4425 175.661 81.844 156.909 81.0395C153.429 80.8903 148.568 81.0663 145.067 81.2223C142.511 81.3363 139.64 81.9003 136.886 82.0425C137.589 81.1563 137.261 81.4155 138.461 81.1185C138.565 80.8075 138.345 80.414 138.373 80.304C138.679 79.1055 139.135 78.7368 138.737 77.5065C137.742 76.5905 138.116 76.8593 136.752 76.5208Z" fill="#3A3A3A"/>
<path d="M153.251 51.742C154.303 51.4365 155.051 51.76 156.143 51.3453C156.51 51.5433 170.067 53.5003 172.629 54.115C190.46 58.3928 208.023 65.7415 222.779 76.727C224.426 77.953 227.005 79.304 228.047 80.8228C228.117 81.2805 228.262 81.9893 228.206 82.426C226.33 81.4838 223.934 79.9768 221.996 78.9083C218.44 76.9793 214.817 75.1765 211.133 73.5035C191.837 64.8233 166.982 60.1555 145.935 62.4515C149.369 60.2613 161.359 62.51 164.935 61.5938C164.971 61.1725 164.14 59.6543 163.862 59.131C163.35 58.1655 164.907 56.5505 164.493 56.1155C163.445 55.0135 164.243 54.1705 163.51 52.9188C160.507 52.7588 155.354 51.6508 153.251 51.742Z" fill="#3A3A3A"/>
<path d="M141.527 48.724C142.524 49.6587 142.949 51.0577 144.287 51.1085C144.71 50.3247 144.048 47.7012 144.257 46.6962C144.794 44.123 146.495 31.3375 147.49 30.2877L147.835 30.4757C148.129 31.9582 148.118 33.1752 148.446 34.8277C149.21 38.6767 149.955 42.5117 150.555 46.3895C150.821 48.1095 150.255 50.6547 150.592 51.402C151.099 51.2855 151.4 51.1065 151.732 50.6772C156.82 44.1062 163.08 38.5422 168.599 32.3532C168.948 31.9625 169.301 31.8115 169.795 31.7427C170.025 32.522 166.554 37.6665 165.948 38.7017C162.979 43.7745 160.942 47.751 156.143 51.3452C155.051 51.76 154.303 51.4365 153.251 51.742L152.922 52.0157C152.324 51.8455 149.589 51.4827 148.747 51.2895C147.026 50.8942 140.805 52.7692 141.527 48.724Z" fill="#3A3A3A"/>
<path d="M133.172 23.7455C135.836 23.8344 144.275 23.3564 146.133 24.2143C146.433 26.048 143.753 38.7993 143.474 41.9605C143.215 42.7475 143.119 44.1418 142.61 44.5425L142.102 44.186C140.832 41.7183 133.365 25.6005 133.172 23.7455Z" fill="#3A3A3A"/>
<path d="M151.153 23.6183C151.909 23.5037 160.319 23.8951 161.307 24.0136C161.4 25.5607 155.867 37.5692 154.882 39.8185C153.87 41.7647 153.091 43.7927 152.273 45.8265C151.747 43.9797 148.423 24.7644 148.742 24.0249C149.473 23.5872 150.271 23.6563 151.153 23.6183Z" fill="#3A3A3A"/>
<path d="M146.989 10.0045C148.005 10.0713 156.873 14.1403 157.188 14.5066C156.452 15.8824 149.554 20.3961 147.672 21.7127C146.713 21.4337 138.535 15.6683 136.883 14.5879C139.256 13.8606 144.42 11.1943 146.989 10.0045Z" fill="#3A3A3A"/>
<path d="M164.088 23.7336C167.51 23.8311 171.109 23.7948 174.546 23.8055C169.766 28.578 164.996 33.9083 160.149 38.8223C158.301 40.6658 156.606 42.686 154.639 44.3758C155.756 41.7903 162.979 24.7611 164.088 23.7336Z" fill="#3A3A3A"/>
<path d="M120.679 23.7758C123.255 23.8536 128.862 23.3592 130.837 24.2047C131.923 25.3 138.9 41.2187 139.458 43.5615C138.373 43.2932 123.49 26.8185 121.299 24.8836C121.046 24.6594 120.788 24.1101 120.679 23.7758Z" fill="#3A3A3A"/>
<path d="M136.886 82.0425C130.345 83.296 125.362 84.1275 118.907 86.2315C116.783 86.9287 114.684 87.703 112.616 88.552C111.257 89.1103 107.902 90.7867 106.788 90.9265C106.269 89.5455 112.248 86.9105 113.258 86.313C120.8 81.8533 128.361 78.9403 136.752 76.5208C138.116 76.8593 137.742 76.5905 138.737 77.5065C139.135 78.7368 138.679 79.1055 138.373 80.304C138.345 80.414 138.565 80.8075 138.461 81.1185C137.261 81.4155 137.589 81.1563 136.886 82.0425Z" fill="#3A3A3A"/>
<path d="M167.076 39.9843C170.753 35.2933 173.107 29.0238 176.864 24.4403C177.91 23.1649 185.449 23.8012 187.303 23.7755C181.444 28.1453 174.085 35.827 168.118 40.7318L167.076 39.9843Z" fill="#3A3A3A"/>
<path d="M108.48 23.8009C110.655 23.96 117.092 23.1312 117.98 24.6799C119.749 27.7642 127.966 39.3785 128.583 41.9875L127.79 41.829C121.634 35.8785 114.692 30.513 108.577 24.4834C108.577 24.4834 108.489 23.8596 108.48 23.8009Z" fill="#3A3A3A"/>
<path d="M208.091 288.72C208.945 289.015 208.686 288.793 209.104 289.515L208.97 289.95L208.875 289.96C208.71 291.117 208.582 293.427 207.595 294.025L207.061 293.69C206.686 294.425 206.655 294.61 206.49 295.425C202.911 297.205 179.71 303.59 177.28 302.198C177.984 301.163 182.58 300.555 184.099 300.01C192.88 296.858 200.208 293.863 208.091 288.72Z" fill="#3A3A3A"/>
<path d="M123.492 10.0397C124.736 10.2764 132.207 13.7443 132.645 14.6584C131.281 15.6495 127.235 17.5057 125.563 18.2849C123.766 19.293 121.057 20.4876 119.139 21.3843L119.545 13.4382C120.755 12.0057 121.984 11.0888 123.492 10.0397Z" fill="#3A3A3A"/>
<path d="M170.724 9.95789C172.239 10.534 173.975 12.0364 175.112 13.1803C175.431 15.4777 175.463 18.9394 175.736 21.508C173.834 20.4842 171.906 19.5072 169.956 18.5779C167.687 17.3423 163.962 15.7262 161.539 14.5677C164.594 13.217 167.744 11.5055 170.724 9.95789Z" fill="#3A3A3A"/>
<path d="M117.159 14.9711C117.584 15.1543 117.395 15.065 117.732 15.4936C117.734 17.2196 118.019 20.0773 117.102 21.4589C116.012 22.4191 110.855 21.9418 109.197 22.0182C109.072 21.9969 108.829 21.8406 108.701 21.7697C109.048 20.7902 115.896 15.7426 117.159 14.9711Z" fill="#3A3A3A"/>
<path d="M176.949 14.7727C177.58 14.927 185.964 21.2312 186.153 21.64C183.69 22.3365 180.084 21.6005 177.251 21.8827C177.212 19.5105 177.112 17.1397 176.949 14.7727Z" fill="#3A3A3A"/>
<path d="M158.211 16.1808L158.989 16.2455C160.039 16.8753 161.394 20.5275 161.962 21.8479C159.462 21.6697 156.941 21.7074 154.438 21.7701L150.657 21.7955C152.845 20.162 156.355 17.9197 158.211 16.1808Z" fill="#3A3A3A"/>
<path d="M135.367 16.1193C136.588 16.1646 142.886 20.3348 143.204 21.4796C142.452 21.9454 142.187 21.7512 141.154 21.7062C138.483 21.7006 135.5 21.6259 132.865 21.8604C133.72 20.006 134.682 18.0294 135.367 16.1193Z" fill="#3A3A3A"/>
<path d="M158.715 9.85535C159.928 9.88472 164.79 9.73095 165.331 10.4413C164.538 11.2809 161.307 12.6 160.092 13.1455C158.207 13.1234 154.076 10.982 152.149 10.0797C154.339 10.0286 156.528 9.9538 158.715 9.85535Z" fill="#3A3A3A"/>
<path d="M138.393 9.87412C139.243 9.85167 140.857 9.63984 141.366 10.3598C140.374 11.7369 135.747 13.4452 133.937 12.7979C132.106 11.8459 130.172 11.0191 128.266 10.0223C131.642 10.0024 135.018 9.95304 138.393 9.87412Z" fill="#3A3A3A"/>
<path d="M132.629 16.7602C132.818 16.7749 132.799 16.8258 133.004 16.9938C132.869 17.9656 131.744 20.4471 131.31 21.4851C128.88 21.7334 126.448 21.9514 124.013 22.139C123.629 21.9605 123.806 22.0605 123.52 21.6551C124.152 20.5491 131.111 17.4829 132.629 16.7602Z" fill="#3A3A3A"/>
<path d="M161.762 16.7985C163.143 16.9913 168.915 20.3719 171.171 21.066L171.402 21.1348L171.677 21.6981C169.452 21.8393 165.85 21.9173 163.702 21.6319C162.81 19.9166 162.187 18.6949 161.762 16.7985Z" fill="#3A3A3A"/>
<path d="M228.047 80.8228C229.667 81.894 234.735 85.5908 235.458 87.2373C234.905 87.2245 228.987 83.1298 228.206 82.426C228.262 81.9893 228.117 81.2805 228.047 80.8228Z" fill="#3A3A3A"/>
<path d="M219.25 299.853C219.779 299.178 225.318 296.08 226.4 295.625C224.988 297.352 221.931 299.6 219.981 300.565C219.788 300.113 219.674 300.093 219.25 299.853Z" fill="#3A3A3A"/>
<path d="M91.4975 119.592C90.2575 119.435 88.0405 119.328 87.2312 118.474C88.2047 117.709 91.2097 118.052 92.5062 118.125C91.7665 118.58 91.3065 118.591 91.4975 119.592Z" fill="#3A3A3A"/>
<path d="M211.734 264.462C212.128 263.705 212.199 263.48 212.949 263.04C214.22 263.873 215.826 265.065 216.737 266.293C215.137 265.79 213.253 265.18 211.734 264.462Z" fill="#3A3A3A"/>
<path d="M167.076 39.9843L168.118 40.7318C167.592 41.3085 167.044 42.0538 166.229 41.9168C166.241 40.9728 166.488 40.9218 167.076 39.9843Z" fill="#3A3A3A"/>
</svg>
